<svg xmlns="http://www.w3.org/2000/svg" width="200.48" height="35" viewBox="0 0 200.48 35"><rect class="svg__rect" x="0" y="0" width="74.97" height="35" fill="#31C4F3"/><rect class="svg__rect" x="72.97" y="0" width="127.50999999999999" height="35" fill="#389AD5"/><path class="svg__text" d="M19.80 22L14.22 22L14.22 13.47L19.75 13.47L19.75 14.66L15.70 14.66L15.70 17.02L19.20 17.02L19.20 18.19L15.70 18.19L15.70 20.82L19.80 20.82L19.80 22ZM29.02 19.91L23.97 19.91L23.97 18.74L29.02 18.74L29.02 19.91ZM29.02 17.43L23.97 17.43L23.97 16.25L29.02 16.25L29.02 17.43ZM35.17 22L33.69 22L33.69 13.47L35.62 13.47L38.08 20.01L40.53 13.47L42.45 13.47L42.45 22L40.97 22L40.97 19.19L41.12 15.43L38.60 22L37.54 22L35.02 15.43L35.17 19.19L35.17 22ZM46.92 18.19L46.92 18.19L46.92 17.39Q46.92 16.19 47.35 15.27Q47.77 14.35 48.57 13.85Q49.37 13.35 50.42 13.35L50.42 13.35Q51.83 13.35 52.70 14.12Q53.56 14.89 53.70 16.29L53.70 16.29L52.22 16.29Q52.12 15.37 51.68 14.96Q51.25 14.55 50.42 14.55L50.42 14.55Q49.46 14.55 48.94 15.26Q48.42 15.96 48.41 17.33L48.41 17.33L48.41 18.09Q48.41 19.47 48.90 20.20Q49.40 20.92 50.35 20.92L50.35 20.92Q51.23 20.92 51.66 20.53Q52.10 20.14 52.22 19.22L52.22 19.22L53.70 19.22Q53.57 20.59 52.69 21.35Q51.81 22.12 50.35 22.12L50.35 22.12Q49.33 22.12 48.56 21.63Q47.78 21.15 47.36 20.26Q46.94 19.37 46.92 18.19ZM58.58 14.98L57.49 14.98Q57.49 14.30 57.99 13.85Q58.48 13.40 59.28 13.40L59.28 13.40Q60.11 13.40 60.57 13.78Q61.03 14.15 61.03 14.83L61.03 14.83Q61.03 15.46 60.41 16.05L60.41 16.05L59.83 16.56L59.01 17.22L61.19 17.22L61.19 18.09L57.60 18.09L57.60 17.36L59.27 15.83Q59.93 15.23 59.93 14.83L59.93 14.83Q59.93 14.59 59.77 14.43Q59.62 14.28 59.31 14.28L59.31 14.28Q58.97 14.28 58.78 14.47Q58.58 14.66 58.58 14.98L58.58 14.98Z" fill="#FFFFFF"/><path class="svg__text" d="M89.54 22L87.16 22L87.16 13.60L91.00 13.60Q92.14 13.60 92.98 13.98Q93.82 14.35 94.28 15.06Q94.73 15.76 94.73 16.71L94.73 16.71Q94.73 17.66 94.28 18.35Q93.82 19.05 92.98 19.42Q92.14 19.80 91.00 19.80L91.00 19.80L89.54 19.80L89.54 22ZM89.54 15.47L89.54 17.93L90.86 17.93Q91.59 17.93 91.96 17.61Q92.33 17.29 92.33 16.71L92.33 16.71Q92.33 16.12 91.96 15.80Q91.59 15.47 90.86 15.47L90.86 15.47L89.54 15.47ZM99.06 17.80L99.06 17.80Q99.06 16.55 99.66 15.55Q100.27 14.56 101.33 14.00Q102.39 13.43 103.72 13.43L103.72 13.43Q105.05 13.43 106.12 14.00Q107.18 14.56 107.79 15.55Q108.39 16.55 108.39 17.80L108.39 17.80Q108.39 19.05 107.79 20.04Q107.18 21.04 106.12 21.60Q105.06 22.17 103.72 22.17L103.72 22.17Q102.39 22.17 101.33 21.60Q100.27 21.04 99.66 20.04Q99.06 19.05 99.06 17.80ZM101.45 17.80L101.45 17.80Q101.45 18.51 101.76 19.05Q102.06 19.60 102.57 19.90Q103.09 20.20 103.72 20.20L103.72 20.20Q104.36 20.20 104.88 19.90Q105.39 19.60 105.69 19.05Q105.99 18.51 105.99 17.80L105.99 17.80Q105.99 17.09 105.69 16.54Q105.39 16 104.88 15.70Q104.36 15.40 103.72 15.40L103.72 15.40Q103.08 15.40 102.57 15.70Q102.06 16 101.76 16.54Q101.45 17.09 101.45 17.80ZM115.50 22L113.12 22L113.12 13.60L116.96 13.60Q118.11 13.60 118.94 13.98Q119.78 14.35 120.24 15.06Q120.70 15.76 120.70 16.71L120.70 16.71Q120.70 17.62 120.27 18.30Q119.84 18.98 119.05 19.36L119.05 19.36L120.86 22L118.32 22L116.79 19.77L115.50 19.77L115.50 22ZM115.50 15.47L115.50 17.93L116.82 17.93Q117.55 17.93 117.92 17.61Q118.29 17.29 118.29 16.71L118.29 16.71Q118.29 16.12 117.92 15.79Q117.55 15.47 116.82 15.47L116.82 15.47L115.50 15.47ZM127.28 15.48L124.69 15.48L124.69 13.60L132.22 13.60L132.22 15.48L129.65 15.48L129.65 22L127.28 22L127.28 15.48ZM138.97 22L136.59 22L136.59 13.60L143.18 13.60L143.18 15.44L138.97 15.44L138.97 17.28L142.68 17.28L142.68 19.12L138.97 19.12L138.97 22ZM147.35 17.80L147.35 17.80Q147.35 16.55 147.95 15.55Q148.55 14.56 149.62 14.00Q150.68 13.43 152.01 13.43L152.01 13.43Q153.34 13.43 154.40 14.00Q155.47 14.56 156.07 15.55Q156.68 16.55 156.68 17.80L156.68 17.80Q156.68 19.05 156.07 20.04Q155.47 21.04 154.41 21.60Q153.35 22.17 152.01 22.17L152.01 22.17Q150.68 22.17 149.62 21.60Q148.55 21.04 147.95 20.04Q147.35 19.05 147.35 17.80ZM149.74 17.80L149.74 17.80Q149.74 18.51 150.04 19.05Q150.35 19.60 150.86 19.90Q151.38 20.20 152.01 20.20L152.01 20.20Q152.65 20.20 153.16 19.90Q153.68 19.60 153.98 19.05Q154.28 18.51 154.28 17.80L154.28 17.80Q154.28 17.09 153.98 16.54Q153.68 16 153.16 15.70Q152.65 15.40 152.01 15.40L152.01 15.40Q151.37 15.40 150.86 15.70Q150.35 16 150.04 16.54Q149.74 17.09 149.74 17.80ZM152.47 12.92L150.84 12.92L152.44 11.09L154.72 11.09L152.47 12.92ZM167.79 22L161.41 22L161.41 13.60L163.79 13.60L163.79 20.11L167.79 20.11L167.79 22ZM174.59 22L172.21 22L172.21 13.60L174.59 13.60L174.59 22ZM179.34 17.80L179.34 17.80Q179.34 16.55 179.94 15.55Q180.54 14.56 181.61 14.00Q182.67 13.43 184.00 13.43L184.00 13.43Q185.33 13.43 186.40 14.00Q187.46 14.56 188.07 15.55Q188.67 16.55 188.67 17.80L188.67 17.80Q188.67 19.05 188.07 20.04Q187.46 21.04 186.40 21.60Q185.34 22.17 184.00 22.17L184.00 22.17Q182.67 22.17 181.61 21.60Q180.54 21.04 179.94 20.04Q179.34 19.05 179.34 17.80ZM181.73 17.80L181.73 17.80Q181.73 18.51 182.04 19.05Q182.34 19.60 182.85 19.90Q183.37 20.20 184.00 20.20L184.00 20.20Q184.64 20.20 185.16 19.90Q185.67 19.60 185.97 19.05Q186.27 18.51 186.27 17.80L186.27 17.80Q186.27 17.09 185.97 16.54Q185.67 16 185.16 15.70Q184.64 15.40 184.00 15.40L184.00 15.40Q183.36 15.40 182.85 15.70Q182.34 16 182.04 16.54Q181.73 17.09 181.73 17.80Z" fill="#FFFFFF" x="85.97"/></svg>